<svg xmlns="http://www.w3.org/2000/svg" xml:space="preserve" width="1.70666in" height="1.70666in" version="1.1" style="shape-rendering:geometricPrecision; text-rendering:geometricPrecision; image-rendering:optimizeQuality; fill-rule:evenodd; clip-rule:evenodd" viewBox="0 0 1707 1707" xmlns:xlink="http://www.w3.org/1999/xlink">
 <defs>
  <style type="text/css">
   
    .fil0 {fill:url(#id0)}
   
  </style>
  <linearGradient id="id0" gradientUnits="userSpaceOnUse" x1="853.331" y1="-0.00393701" x2="853.331" y2="1706.66">
   <stop offset="0" style="stop-opacity: 1; stop-color: rgb(255, 255, 255);" id="id_102"></stop>
   <stop offset="0.509804" style="stop-opacity: 1; stop-color: rgb(255, 255, 255);" id="id_103"></stop>
   <stop offset="1" style="stop-opacity: 1; stop-color: rgb(255, 255, 255);" id="id_104"></stop>
  </linearGradient>
 </defs>
 <g id="Layer_x0020_1">
  <metadata id="CorelCorpID_0Corel-Layer"></metadata>
  <path class="fil0" d="M167 686c-5,0 -11,-2 -16,-5l-47 -36 -54 8c-9,1 -18,-2 -24,-9 -6,-7 -8,-16 -5,-25l17 -53 -23 -53c-3,-9 -3,-18 2,-25 5,-7 13,-12 22,-12l55 0 42 -39c7,-6 16,-8 25,-6 9,2 15,9 18,18l17 55 52 28c8,4 14,12 14,22 1,9 -4,18 -12,23l-49 33 -8 54c-2,9 -8,17 -17,20 -2,1 -5,2 -9,2zm207 561c-9,-1 -17,-5 -23,-11 -23,-26 -3,-74 37,-67 63,12 139,50 191,86 72,49 129,111 174,181 -31,-188 -105,-365 -232,-513 -51,-61 -111,-116 -175,-162 -25,-17 -54,-36 -81,-50 -46,-23 -12,-93 34,-71 31,14 65,37 92,56 70,50 134,110 190,175 191,224 272,503 266,794 1,21 -15,39 -36,41l0 0 0 1 -1 0 0 0 -1 0 0 0 -1 0 -1 0 0 0 -1 0 0 0 -1 0 0 0 -1 0 0 0 0 0 -1 -1 0 0 -1 0 0 0c-16,-2 -29,-13 -33,-29 -35,-145 -109,-270 -232,-356 -35,-24 -73,-44 -112,-59 -15,-5 -35,-12 -51,-15zm483 156c-4,-161 20,-324 77,-476 44,-116 108,-223 188,-318 56,-65 120,-125 190,-175 28,-19 61,-42 92,-56 20,-9 43,-1 53,19 9,19 1,43 -19,52 -27,13 -57,33 -81,51 -65,46 -125,101 -176,162 -125,148 -200,324 -230,510 45,-70 103,-131 175,-180 53,-36 128,-74 193,-86 21,-4 42,11 45,32 4,22 -10,41 -31,46 -17,4 -33,8 -50,15 -41,15 -80,35 -115,60 -123,84 -200,204 -233,348 -1,20 -17,37 -38,37l-6 1 0 -1c-1,0 -2,0 -4,-1 -19,-4 -31,-21 -30,-40zm-148 -523c0,0 -1,0 -1,0 -22,-1 -39,-19 -38,-41 3,-163 -40,-316 -147,-441 -30,-36 -66,-69 -105,-97 -16,-11 -31,-20 -49,-30 -18,-10 -27,-33 -18,-52 10,-20 33,-28 53,-19 19,9 40,23 58,36 44,31 84,68 119,108 119,138 169,316 167,496 0,22 -17,40 -39,40zm174 -198c-20,-1 -36,-18 -36,-38 -4,-181 47,-357 165,-496 34,-41 74,-78 118,-109 17,-12 39,-26 58,-35 19,-9 43,-1 52,18 10,20 1,42 -17,53 -17,10 -32,18 -49,30 -38,28 -73,60 -104,96 -105,126 -148,279 -144,442 0,21 -17,39 -39,40l-3 0 -1 -1zm558 273c-3,0 -6,-1 -9,-2 -9,-3 -15,-10 -17,-19l-11 -58 -46 -30c-8,-5 -12,-14 -12,-23 0,-9 5,-18 13,-22l50 -27 17 -56c2,-8 9,-15 18,-18 9,-2 18,0 25,7l41 38 59 0c9,0 17,5 22,13 5,8 5,17 1,25l-24 50 19 55c3,8 1,18 -5,25 -6,7 -14,11 -24,9l-57 -8 -44 35c-4,4 -10,6 -16,6zm95 -532c-4,0 -7,0 -10,-2 -9,-3 -15,-11 -16,-20l-8 -54 -50 -33c-7,-5 -12,-14 -11,-23 0,-10 5,-18 14,-22l52 -28 17 -55c2,-9 9,-15 18,-18 9,-2 18,0 25,6l41 39 59 0c9,0 18,5 23,12 5,8 5,17 1,26l-25 52 19 52c4,9 2,18 -4,25 -5,7 -14,11 -23,10l-59 -5 -48 33c-4,4 -10,5 -15,5zm-1274 795c-5,0 -11,-2 -16,-6l-44 -36 -57 8c-9,2 -18,-2 -24,-9 -6,-7 -8,-16 -5,-25l20 -55 -25 -53c-4,-8 -3,-18 2,-26 5,-7 14,-12 23,-12l58 3 41 -39c6,-6 16,-8 24,-6 9,3 16,9 19,18l16 55 50 28c8,5 13,13 14,22 0,9 -5,18 -12,23l-46 30 -12 58c-1,9 -8,16 -16,19 -3,2 -7,3 -10,3z" id="id_101"></path>
 </g>
</svg>