<svg xmlns="http://www.w3.org/2000/svg" xmlns:xlink="http://www.w3.org/1999/xlink" viewBox="0 0 64 64"><defs><style>.cls-1{fill:url(#linear-gradient);}.cls-2{fill:#fff;}</style><linearGradient id="linear-gradient" x1="3.25" y1="32" x2="60.75" y2="32" gradientUnits="userSpaceOnUse"><stop offset="0" stop-color="#ffffff" id="id_109"></stop><stop offset="0.61" stop-color="#ffffff" id="id_110"></stop><stop offset="1" stop-color="#ffffff" id="id_111"></stop></linearGradient></defs><g id="Layer_20" data-name="Layer 20"><circle class="cls-1" cx="32" cy="32" r="28.75" id="id_101"></circle><path class="cls-2" d="M45.35,13.61H18.65a5,5,0,0,0-5,5v26.7a5,5,0,0,0,5,5h26.7a5,5,0,0,0,5-5V18.65A5,5,0,0,0,45.35,13.61Zm-20,35.28H18.65a3.55,3.55,0,0,1-3.54-3.54V38.63H25.37Zm0-11.76H15.11V26.87H25.37Zm0-11.76H15.11V18.65a3.55,3.55,0,0,1,3.54-3.54h6.72ZM37.13,48.89H26.87V38.63H37.13Zm0-11.76H26.87V26.87H37.13Zm0-11.76H26.87V15.11H37.13Zm11.76,20a3.55,3.55,0,0,1-3.54,3.54H38.63V38.63H48.89Zm0-8.22H38.63V26.87H48.89Zm0-11.76H38.63V15.11h6.72a3.55,3.55,0,0,1,3.54,3.54Z" id="id_102" style="fill: rgb(50, 90, 175);"></path><path class="cls-2" d="M17.93,46.08a.74.74,0,0,0,.53.22.71.71,0,0,0,.53-.22l1.25-1.24,1.24,1.24a.74.74,0,0,0,.53.22.71.71,0,0,0,.53-.22.74.74,0,0,0,0-1.06L21.3,43.78l1.24-1.25a.74.74,0,0,0,0-1.06.75.75,0,0,0-1.06,0l-1.24,1.25L19,41.47a.75.75,0,0,0-1.06,1.06l1.25,1.25L17.93,45A.75.75,0,0,0,17.93,46.08Z" id="id_103" style="fill: rgb(50, 90, 175);"></path><path class="cls-2" d="M41.05,46.08a.73.73,0,0,0,.53.22.74.74,0,0,0,.53-.22l1.24-1.24,1.25,1.24a.71.71,0,0,0,.53.22.74.74,0,0,0,.53-.22.75.75,0,0,0,0-1.06l-1.25-1.24,1.25-1.25a.75.75,0,0,0-1.06-1.06l-1.25,1.25-1.24-1.25a.75.75,0,0,0-1.06,0,.74.74,0,0,0,0,1.06l1.24,1.25L41.05,45A.74.74,0,0,0,41.05,46.08Z" id="id_104" style="fill: rgb(173, 182, 194);"></path><path class="cls-2" d="M29.7,22.84a.75.75,0,0,0,.53.22.79.79,0,0,0,.53-.22L32,21.59l1.24,1.25a.79.79,0,0,0,.53.22.75.75,0,0,0,.53-.22.74.74,0,0,0,0-1.06l-1.24-1.25,1.24-1.24a.74.74,0,0,0,0-1.06.75.75,0,0,0-1.06,0L32,19.47l-1.24-1.24a.75.75,0,0,0-1.06,0,.74.74,0,0,0,0,1.06l1.24,1.24L29.7,21.78A.74.74,0,0,0,29.7,22.84Z" id="id_105" style="fill: rgb(50, 90, 175);"></path><path class="cls-2" d="M44.09,17a3.26,3.26,0,1,0,3.26,3.26A3.26,3.26,0,0,0,44.09,17Zm0,5a1.76,1.76,0,1,1,1.76-1.76A1.76,1.76,0,0,1,44.09,22Z" id="id_106"></path><path class="cls-2" d="M32,47a3.26,3.26,0,1,0-3.26-3.26A3.27,3.27,0,0,0,32,47Zm0-5a1.76,1.76,0,1,1-1.76,1.76A1.76,1.76,0,0,1,32,42Z" id="id_107"></path><path class="cls-2" d="M32,35.27A3.26,3.26,0,1,0,28.74,32,3.26,3.26,0,0,0,32,35.27Zm0-5A1.76,1.76,0,1,1,30.24,32,1.76,1.76,0,0,1,32,30.26Z" id="id_108"></path></g></svg>