<svg version="1.1" id="Layer_1" xmlns="http://www.w3.org/2000/svg" xmlns:xlink="http://www.w3.org/1999/xlink" x="0px" y="0px" viewBox="0 0 344.2737 355.1683" enable-background="new 0 0 344.2737 355.1683" xml:space="preserve">
<g>
	<polygon points="321.9464,305.1683 225.9464,305.1683 225.9464,335.1683 221.9464,335.1683 221.9464,255.1683 120.9464,255.1683 
		120.9464,335.1683 116.9464,335.1683 116.9464,285.1683 20.9465,285.1683 20.9465,335.1683 0.9465,335.1683 0.9465,355.1683 
		341.9464,355.1683 341.9464,335.1683 321.9464,335.1683 	" id="id_101" style="fill: rgb(255, 255, 255);"></polygon>
	<path d="M171.4464,100.5003c0.5005,0,0.9883,0.0508,1.4673,0.127l11.646-27.0489h-26.2266l11.646,27.0489
		C170.4581,100.5511,170.946,100.5003,171.4464,100.5003z" id="id_102" style="fill: rgb(255, 255, 255);"></path>
	<path d="M186.1272,250.0609c6.8281,0,12.3652-5.5332,12.3652-12.3633v-88v-16.9375V87.9525
		c3.9443-2.4776,11.4492-7.8164,19.0303-16.6534c10.6855-12.416,21.4101-32.1425,21.374-59.5302
		c0-1.3457-0.0264-2.6973-0.0762-4.0567c-0.1611-4.4179-3.8672-7.8672-8.2832-7.706c-4.415,0.1592-7.8642,3.8662-7.705,8.2832
		c0.0429,1.1826,0.0644,2.3447,0.0644,3.4795c-0.0361,23.1758-8.7627,38.8144-17.5293,49.124
		c-4.3848,5.124-8.7881,8.835-12.0351,11.2197c-0.7803,0.5733-1.4893,1.0664-2.1182,1.4883
		c-0.1504-0.0088-0.2979-0.0225-0.4502-0.0225h-1.3057l-0.665,1.5459l-4.3291,10.0547l-7.4146,17.2237
		c2.2129,1.6894,3.647,4.3476,3.647,7.3476c0,5.1074-4.1416,9.25-9.25,9.25c-5.1084,0-9.25-4.1426-9.25-9.25
		c0-3,1.4341-5.6582,3.647-7.3476l-7.4151-17.2247l-4.3276-10.0507l-0.6665-1.5489h-1.3052c-0.1513,0-0.2998,0.0137-0.4492,0.0225
		c-3.4014-2.2832-9.2739-6.7666-14.977-13.6846c-8.481-10.3261-16.6739-25.6924-16.7081-48.1484
		c0-1.1426,0.0215-2.2969,0.0645-3.459c0.1719-4.4141-3.2686-8.1328-7.6841-8.3027c-4.4131-0.1719-8.1304,3.2676-8.3027,7.6836
		c-0.0537,1.3818-0.0791,2.7422-0.0772,4.0781c-0.0366,27.3896,10.6875,47.1152,21.3731,59.5303
		c7.582,8.8379,15.0889,14.1777,19.0322,16.6543v44.8076v16.9375v88c0,6.8301,5.5371,12.3633,12.3633,12.3633
		c6.8281,0,12.3652-5.5332,12.3652-12.3633v-80.2715h4.6348v80.2715C173.7639,244.5277,179.3009,250.0609,186.1272,250.0609z" id="id_103" style="fill: rgb(255, 255, 255);"></path>
	<path d="M166.3459,68.9534c12.0996,2.8184,24.1914-4.707,27.0098-16.8066c2.8174-12.0996-4.708-24.1934-16.8067-27.0098
		c-12.0996-2.8183-24.1933,4.7071-27.0117,16.8067C146.7198,54.0433,154.2453,66.137,166.3459,68.9534z" id="id_104" style="fill: rgb(255, 255, 255);"></path>
	<path d="M67.4514,130.5003c0.5005,0,0.9883,0.0508,1.4673,0.127l11.646-27.0489H54.3381l11.646,27.0489
		C66.4631,130.5511,66.9509,130.5003,67.4514,130.5003z" id="id_105" style="fill: rgb(255, 255, 255);"></path>
	<path d="M72.5538,55.137c-12.0996-2.8183-24.1933,4.7071-27.0117,16.8067c-2.8174,12.0996,4.708,24.1933,16.8086,27.0097
		c12.0996,2.8184,24.1914-4.707,27.0098-16.8066C92.1779,70.0472,84.6525,57.9534,72.5538,55.137z" id="id_106" style="fill: rgb(255, 255, 255);"></path>
	<path d="M40.4055,117.9534v44.8067v16.9375v88c0,6.8301,5.5371,12.3633,12.3633,12.3633c6.8281,0,12.3652-5.5332,12.3652-12.3633
		v-80.2715h4.6348v80.2715c0,6.8301,5.5371,12.3633,12.3633,12.3633c6.8281,0,12.3652-5.5332,12.3652-12.3633v-88v-16.9375v-30.9414
		c4.2051,9.3291,8.5439,26.0722,9.3589,54.7461c0.126,4.3379,3.6831,7.7695,7.9946,7.7695c0.0776,0,0.1548-0.001,0.2329-0.0029
		c4.416-0.1289,7.8945-3.8116,7.7661-8.2276c-1.0434-35.4824-7.0815-55.2031-13.7627-66.7197
		c-5.2412-9.1445-11.2529-12.8389-14.5254-14.1338c-1.3178-1.0439-2.9804-1.6719-4.7929-1.6719h-1.3052l-0.6924,1.6084
		l-4.3037,9.9971l-7.4131,17.2188c2.2129,1.6894,3.647,4.3476,3.647,7.3476c0,5.1074-4.1416,9.25-9.25,9.25
		c-5.1084,0-9.25-4.1426-9.25-9.25c0-3,1.4341-5.6582,3.647-7.3476l-7.4156-17.2256l-4.3271-10.0498l-0.6665-1.5489H48.134
		c-0.1514,0-0.2993,0.0137-0.4482,0.0225c-3.4019-2.2832-9.2749-6.7666-14.979-13.6846
		c-8.48-10.3271-16.6724-25.6914-16.7071-48.1474c0-1.1426,0.0196-2.2969,0.0645-3.459c0.1704-4.4151-3.2681-8.1338-7.6836-8.3047
		c-4.4155-0.1699-8.1323,3.2705-8.3027,7.6846c-0.0542,1.3818-0.0801,2.7422-0.0777,4.0791
		c-0.0366,27.3877,10.687,47.1142,21.3745,59.5283C28.9558,110.1361,36.4621,115.4759,40.4055,117.9534z" id="id_107" style="fill: rgb(255, 255, 255);"></path>
	<path d="M276.8244,150.9984c0.501,0,0.9883,0.0507,1.4678,0.1279l11.6465-27.0498h-26.2285l11.6465,27.0498
		C275.8362,151.0491,276.3235,150.9984,276.8244,150.9984z" id="id_108" style="fill: rgb(255, 255, 255);"></path>
	<path d="M271.7218,75.6351c-12.0986,2.8164-19.624,14.9101-16.8066,27.0097c2.8183,12.0997,14.9101,19.625,27.0097,16.8086
		c12.1006-2.8183,19.626-14.9121,16.8086-27.0117C295.9153,80.3421,283.8214,72.8167,271.7218,75.6351z" id="id_109" style="fill: rgb(255, 255, 255);"></path>
	<path d="M335.9153,50.5062c-4.417,0.1582-7.8653,3.8662-7.7061,8.2832c0.041,1.1836,0.0654,2.3447,0.0654,3.4785
		c-0.0371,23.1738-8.7627,38.8144-17.5293,49.124c-4.3847,5.1231-8.788,8.833-12.0341,11.2188
		c-0.7813,0.5732-1.4913,1.0664-2.1202,1.4882c-0.1494-0.0087-0.2978-0.0224-0.4492-0.0224h-1.3047l-0.665,1.5439l-4.3301,10.0596
		l-7.414,17.2217c2.2128,1.6904,3.6464,4.3476,3.6464,7.3467c0,5.1093-4.1416,9.25-9.25,9.25c-5.1084,0-9.25-4.1407-9.25-9.25
		c0-2.9991,1.4336-5.6563,3.6465-7.3467l-7.414-17.2227l-4.3028-9.9931l-0.6924-1.6094h-1.3046
		c-1.8125,0-3.4747,0.6279-4.793,1.6719c-3.2715,1.2949-9.2861,4.9882-14.5274,14.1338
		c-6.6806,11.5175-12.7168,31.2382-13.7636,66.7177c-0.126,4.417,3.3496,8.1016,7.7666,8.2285
		c0.0791,0.002,0.1592,0.003,0.2373,0.003c4.3115,0.0009,7.8652-3.4317,7.9912-7.7676c0.8096-28.6895,5.1621-45.4121,9.3603-54.7578
		v30.9521v16.9395v88c0,6.8301,5.5372,12.3633,12.3653,12.3633c6.8261,0,12.3633-5.5332,12.3633-12.3633v-80.2715h4.6347v80.2715
		c0,6.8301,5.5371,12.3633,12.3653,12.3633c6.8261,0,12.3632-5.5332,12.3632-12.3633v-88v-16.9395v-44.8095
		c3.9444-2.4776,11.4493-7.8164,19.0284-16.6524c10.6855-12.414,21.4091-32.1406,21.375-59.5283
		c0-1.3438-0.0264-2.6963-0.0752-4.0576C344.0382,53.7952,340.3302,50.3441,335.9153,50.5062z" id="id_110" style="fill: rgb(255, 255, 255);"></path>
</g>
</svg>